<?xml version="1.0" encoding="UTF-8"?>
<svg width="500px" height="500px" viewBox="0 0 500 500" version="1.1" xmlns="http://www.w3.org/2000/svg" xmlns:xlink="http://www.w3.org/1999/xlink">
    <!-- Generator: Sketch 53.1 (72631) - https://sketchapp.com -->
    <title>Artboard</title>
    <desc>Created with Sketch.</desc>
    <defs>
        <path d="M1.35,1.064 L0.33,24.999 C1.974,26.198 2.932,26.874 3.481,27.252 L3.481,27.252 C11.982,26.776 20.572,26.41 29.082,26.16 L29.082,26.16 L29.344,13.86 C27.274,12.331 24.988,10.663 22.392,8.784 L22.392,8.784 L21.96,23.097 L18.637,23.209 C15.725,23.305 14.268,23.36 11.355,23.476 L11.355,23.476 L7.541,23.627 L8.328,0.813 C5.994,0.891 3.667,0.975 1.35,1.064" id="path-1"></path>
        <linearGradient x1="49.9525822%" y1="79.9110224%" x2="50.5015868%" y2="-65.3801831%" id="linearGradient-3">
            <stop stop-color="#FFFFFF" offset="0%"></stop>
            <stop stop-color="#000000" offset="100%"></stop>
        </linearGradient>
        <path d="M0.453,0.008 C8.522,5.706 8.546,5.772 8.548,7.708 L8.548,7.708 L8.5,25.774 C11.084,25.793 13.182,25.818 15.734,25.861 L15.734,25.861 L15.616,7.887 C13.114,6.018 11.29,4.66 9.07,3.007 L9.07,3.007 L5.043,0.007 L5.015,0.007 C4.588,0.005 4.162,0.004 3.736,0.004 L3.736,0.004 C2.641,0.004 1.549,0.008 0.453,0.008" id="path-4"></path>
        <linearGradient x1="49.927787%" y1="85.8022214%" x2="50.2830765%" y2="-88.7938624%" id="linearGradient-6">
            <stop stop-color="#FFFFFF" offset="0%"></stop>
            <stop stop-color="#000000" offset="100%"></stop>
        </linearGradient>
        <path d="M1.265,0.064 L0.838,25.836 C3.391,25.796 5.489,25.775 8.071,25.761 L8.071,25.761 L8.262,0.011 C5.921,0.021 3.594,0.044 1.265,0.064" id="path-7"></path>
        <linearGradient x1="49.9647755%" y1="85.9169739%" x2="50.1380311%" y2="-89.1142618%" id="linearGradient-9">
            <stop stop-color="#FFFFFF" offset="0%"></stop>
            <stop stop-color="#000000" offset="100%"></stop>
        </linearGradient>
        <path d="M35.126,3.204 L34.531,4.682 L29.154,5.17 L28.85,4.007 C20.594,5.092 12.573,6.258 4.796,7.498 L4.796,7.498 L0.581,58.561 C4.12,57.659 6.985,56.956 10.909,56.026 L10.909,56.026 L14.259,14.915 L20.536,14.051 L21.239,17.268 C23.215,26.301 25.706,35.4 28.211,44.289 L28.211,44.289 C28.826,42.762 29.444,41.238 30.061,39.711 L30.061,39.711 C33.529,31.146 37.114,22.286 40.409,13.515 L40.409,13.515 L41.167,11.5 L47.814,10.703 L44.866,48.694 C48.529,47.981 51.435,47.442 55.398,46.739 L55.398,46.739 L58.789,0.527 C50.721,1.348 42.829,2.242 35.126,3.204" id="path-10"></path>
        <linearGradient x1="49.8765661%" y1="85.79078%" x2="50.4789349%" y2="-88.6259808%" id="linearGradient-12">
            <stop stop-color="#FFFFFF" offset="0%"></stop>
            <stop stop-color="#000000" offset="100%"></stop>
        </linearGradient>
        <path d="M2.895,1.088 L0.872,29.563 C3.31,29.247 5.37,28.992 7.94,28.684 L7.94,28.684 L9.807,0.497 C7.49,0.689 5.186,0.886 2.895,1.088" id="path-13"></path>
        <linearGradient x1="49.9616652%" y1="85.920674%" x2="50.1469519%" y2="-89.1287831%" id="linearGradient-15">
            <stop stop-color="#FFFFFF" offset="0%"></stop>
            <stop stop-color="#000000" offset="100%"></stop>
        </linearGradient>
        <path d="M15.957,0.5 C17.94,2.035 19.929,3.567 21.924,5.092 L21.924,5.092 L23.413,6.227 L22.494,23.263 L19.379,23.487 C16.473,23.695 15.02,23.804 12.115,24.032 L12.115,24.032 L8.069,24.35 L8.509,16.65 C6.42,15.048 4.206,13.367 1.827,11.568 L1.827,11.568 L0.722,29.018 C8.958,28.152 17.263,27.387 25.477,26.738 L25.477,26.738 C26.904,25.629 28.559,24.34 29.595,23.516 L29.595,23.516 L30.361,7.081 C27.338,4.793 24.328,2.49 21.342,0.187 L21.342,0.187 C19.541,0.288 17.746,0.392 15.957,0.5" id="path-16"></path>
        <linearGradient x1="49.9202159%" y1="84.0861919%" x2="50.5073336%" y2="-81.7759384%" id="linearGradient-18">
            <stop stop-color="#FFFFFF" offset="0%"></stop>
            <stop stop-color="#000000" offset="100%"></stop>
        </linearGradient>
        <path d="M1.104,27.56 C3.704,27.757 5.788,27.925 8.272,28.136 L8.272,28.136 L7.071,1.199 C4.761,1.07 2.439,0.95 0.11,0.832 L0.11,0.832 L1.104,27.56 Z" id="path-19"></path>
        <linearGradient x1="49.9632913%" y1="85.8443272%" x2="50.1430869%" y2="-88.8323008%" id="linearGradient-21">
            <stop stop-color="#FFFFFF" offset="0%"></stop>
            <stop stop-color="#000000" offset="100%"></stop>
        </linearGradient>
        <path d="M2.608,28.894 C5.21,29.209 7.274,29.469 9.684,29.785 L9.684,29.785 L7.901,1.286 C5.609,1.081 3.304,0.881 0.987,0.689 L0.987,0.689 L2.608,28.894 Z" id="path-22"></path>
        <linearGradient x1="49.9631416%" y1="85.8457238%" x2="50.142935%" y2="-88.8424089%" id="linearGradient-24">
            <stop stop-color="#FFFFFF" offset="0%"></stop>
            <stop stop-color="#000000" offset="100%"></stop>
        </linearGradient>
        <path d="M0.488,26.227 C10.084,26.567 19.761,27.014 29.343,27.564 L29.343,27.564 L28.817,11.596 C26.653,13.145 24.352,14.808 21.882,16.607 L21.882,16.607 L22.059,23.761 L18.271,23.598 C15.36,23.475 13.904,23.417 10.991,23.312 L10.991,23.312 L7.645,23.19 L7.195,1.021 L10.908,1.121 C14.29,1.212 16.168,1.267 19.219,1.365 L19.219,1.365 C19.471,1.188 19.699,1.025 19.931,0.86 L19.931,0.86 C13.408,0.64 6.83,0.459 0.194,0.324 L0.194,0.324 L0.488,26.227 Z" id="path-25"></path>
        <linearGradient x1="49.8838715%" y1="81.2191699%" x2="50.4444427%" y2="-70.919695%" id="linearGradient-27">
            <stop stop-color="#FFFFFF" offset="0%"></stop>
            <stop stop-color="#000000" offset="100%"></stop>
        </linearGradient>
        <path d="M3.864,50.127 C7.798,51.016 10.671,51.689 14.24,52.559 L14.24,52.559 L10.481,2.383 C7.118,1.886 3.716,1.401 0.273,0.931 L0.273,0.931 L3.864,50.127 Z" id="path-28"></path>
        <linearGradient x1="49.9667383%" y1="85.8483029%" x2="50.1294711%" y2="-88.8477638%" id="linearGradient-30">
            <stop stop-color="#FFFFFF" offset="0%"></stop>
            <stop stop-color="#000000" offset="100%"></stop>
        </linearGradient>
        <path d="M9.126,16.994 L9.496,17.675 L10.379,30.863 C12.953,31.257 14.998,31.577 17.375,31.962 L17.375,31.962 L15.282,2.171 C10.301,1.601 5.251,1.058 0.134,0.543 L0.134,0.543 C2.904,5.569 5.861,10.977 9.126,16.994" id="path-31"></path>
        <linearGradient x1="49.9326045%" y1="85.8148417%" x2="50.2623765%" y2="-88.7149827%" id="linearGradient-33">
            <stop stop-color="#FFFFFF" offset="0%"></stop>
            <stop stop-color="#000000" offset="100%"></stop>
        </linearGradient>
        <path d="M8.751,8.467 L9.713,28.463 C12.329,28.72 14.404,28.933 16.839,29.196 L16.839,29.196 L15.334,1.554 C13.03,1.387 10.721,1.225 8.395,1.072 L8.395,1.072 L8.497,3.19 L5.514,0.887 C3.956,0.786 2.403,0.683 0.836,0.589 L0.836,0.589 C8.635,6.595 8.661,6.683 8.751,8.467" id="path-34"></path>
        <linearGradient x1="49.9310612%" y1="85.8131422%" x2="50.2672321%" y2="-88.7116111%" id="linearGradient-36">
            <stop stop-color="#FFFFFF" offset="0%"></stop>
            <stop stop-color="#000000" offset="100%"></stop>
        </linearGradient>
    </defs>
    <g id="Artboard" stroke="none" stroke-width="1" fill="none" fill-rule="evenodd">
        <g id="Group-107" transform="translate(0.000000, 44.665000)">
            <path d="M468.791,274.1335 L466.867,248.6345 C466.913,248.5805 466.96,248.5285 467.006,248.4745 L500,210.8475 L0,209.1255 L32.751,246.9795 C32.797,247.0325 32.843,247.0865 32.889,247.1395 L23.611,357.5225 L33.709,360.6435 L68.494,370.1625 L85.635,365.7165 C88.705,364.9195 90.943,364.3475 93.203,363.7885 C94.869,363.3805 96.56,362.9735 98.551,362.4965 C98.813,362.4375 99.083,362.3755 99.353,362.3085 L100.521,362.0305 C100.893,361.9395 101.258,361.8555 101.667,361.7645 L102.764,361.5135 C132.492,355.5305 181.98,348.4595 249.108,348.6915 C320.421,348.9365 371.886,357.1795 402.519,364.0595 L420.306,368.4935 L462.054,355.3955 L455.692,273.9505 L458.509,274.0885 L468.791,274.1335 Z" id="Fill-1" fill="#ED254E"></path>
            <path d="M248.8848,392.1696 C235.6418,386.5356 188.2018,366.8046 141.9308,353.0616 L155.5088,335.6696 L142.4318,283.5476 L249.9778,74.5476 L356.0828,284.2826 L342.6468,336.3146 L356.1048,353.7986 C309.7408,367.2226 262.1658,386.6276 248.8848,392.1696 L248.8848,392.1696 Z M362.5158,332.2526 L375.4438,282.1866 L250.1158,34.4546 L123.0858,281.3176 L135.6688,331.4716 L110.8068,363.3166 L124.0358,366.9106 C180.6088,382.2806 244.5598,410.1386 245.1988,410.4176 L248.8168,411.9996 L252.4448,410.4426 C253.0848,410.1676 317.1888,382.7606 373.9058,367.7716 L387.1578,364.2676 L362.5158,332.2526 Z" id="Fill-3" fill="#ED254E"></path>
            <path d="M352.5811,334.2838 L365.7641,283.2348 L250.0471,54.5008 L132.7591,282.4318 L145.5891,333.5708 L126.4241,358.1178 C184.3381,373.8518 248.8511,402.0698 248.8511,402.0698 C248.8511,402.0698 313.5561,374.2978 371.5771,358.9628 L352.5811,334.2838 Z" id="Fill-5" fill="#000022"></path>
            <path d="M336.4463,317.1198 L347.5223,286.7698 L249.7163,150.6338 L150.9753,286.0938 L161.8413,316.5178 L145.6963,331.1008 C194.5623,340.5088 249.0043,357.3468 249.0043,357.3468 C249.0043,357.3468 303.5613,340.8838 352.4913,331.8128 L336.4463,317.1198 Z" id="Fill-7" fill="#004C7E"></path>
            <path d="M424.8252,223.3151 C417.7412,204.3091 408.6402,189.4871 403.6682,182.1111 L411.7422,168.4921 L408.3082,168.3171 L403.1232,162.3391 C402.6422,161.7861 391.2482,148.7031 380.4652,140.7381 C369.7642,132.8351 341.4182,119.4971 340.2172,118.9331 L329.4032,113.8571 L327.3672,125.6281 C321.3242,160.5891 293.7182,179.4071 290.6992,181.3691 C270.6622,190.9781 258.6352,173.4781 257.3512,171.4841 L249.6872,159.2371 L241.9382,171.4311 C241.4212,172.2451 229.1012,191.1371 208.5082,181.0791 C205.4342,179.0751 178.0812,160.3351 172.2382,125.0941 L170.2842,113.3091 L159.4352,118.3111 C158.2302,118.8661 129.7932,132.0091 119.0392,139.8381 C108.2012,147.7291 96.7162,160.7331 96.2322,161.2831 L91.0052,167.2241 L87.5712,167.3771 L95.5512,181.0501 C90.5282,188.3921 81.3252,203.1511 74.1112,222.1081 L71.0032,230.2741 L79.0332,233.7201 C82.7512,235.3171 170.9832,272.8501 248.8442,276.8651 L249.2822,276.8881 L249.7202,276.8681 C327.6062,273.3891 416.0952,236.4641 419.8232,234.8931 L427.8772,231.5031 L424.8252,223.3151 Z" id="Fill-9" fill="#ED254E"></path>
            <path d="M329.9531,112.4845 L332.2151,90.7495 L331.2781,88.5695 C297.8191,10.6765 253.8451,1.0585 251.9901,0.6865 L250.2341,0.3355 L248.4751,0.6745 C246.6181,1.0335 202.5791,10.3485 168.5831,88.0095 L167.6321,90.1835 L169.7441,111.9335 L163.1671,124.1215 L163.2501,126.5845 C163.3021,128.1535 165.0551,165.5185 209.8571,208.2075 L210.3871,208.6735 C221.8921,218.0515 234.0651,224.9425 246.5651,229.1565 L249.4421,230.1265 L252.3271,229.1765 C264.8551,225.0495 277.0751,218.2405 288.6441,208.9425 L289.1771,208.4805 C334.2731,166.1015 336.2831,128.7495 336.3471,127.1805 L336.4461,124.7175 L329.9531,112.4845 Z" id="Fill-11" fill="#ED254E"></path>
            <path d="M216.1431,201.6105 C225.7711,209.4585 236.9051,216.2855 249.4761,220.5245 C262.0751,216.3725 273.2561,209.6215 282.9371,201.8405 C325.8391,161.5245 327.2431,126.8125 327.2431,126.8125 L320.6031,114.3035 L322.9071,92.1665 C290.9521,17.7755 250.2021,9.6205 250.2021,9.6205 C250.2021,9.6205 209.3961,17.4945 176.9301,91.6635 L179.0811,113.8165 L172.3561,126.2785 C172.3561,126.2785 173.5211,161.0005 216.1431,201.6105" id="Fill-13" fill="#000022"></path>
            <path d="M392.8174,182.548 L396.2124,176.823 L389.1264,176.461 L396.2414,168.31 C396.2414,168.31 385.1494,155.526 375.0514,148.067 C364.9534,140.609 336.3454,127.181 336.3454,127.181 C329.1454,168.831 295.1384,189.341 295.1384,189.341 C266.6114,203.458 249.6284,176.319 249.6284,176.319 C249.6284,176.319 232.4584,203.34 204.0284,189.027 C204.0284,189.027 170.1634,168.283 163.2504,126.585 C163.2504,126.585 134.5504,139.815 124.4014,147.204 C114.2534,154.593 103.0734,167.3 103.0734,167.3 L110.1314,175.501 L103.0444,175.814 L106.3994,181.562 C106.3994,181.562 92.5024,199.399 82.6264,225.348 C82.6264,225.348 172.1844,263.789 249.3134,267.765 C326.4674,264.32 416.2874,226.497 416.2874,226.497 C406.5904,200.48 392.8174,182.548 392.8174,182.548" id="Fill-15" fill="#000022"></path>
            <path d="M249.4756,220.5241 C249.4756,220.5241 226.7476,216.3961 204.0076,195.0791 C225.3856,223.7711 249.4336,232.9241 249.4336,232.9241 C249.4336,232.9241 273.5426,223.9371 295.1176,195.3921 C272.2316,216.5521 249.4756,220.5241 249.4756,220.5241 M350.9096,201.3011 C363.1276,180.7581 381.7346,167.2651 381.7346,167.2651 C381.7346,167.2651 362.7456,149.1591 333.6126,138.4951 C330.2756,149.1781 325.2466,158.1591 319.9136,165.4591 C314.9276,176.6901 308.5936,189.1701 301.6516,198.5581 C285.3776,220.5631 249.3756,249.5441 249.3756,249.5441 C249.3756,249.5441 308.3006,227.4751 311.5496,225.1241 C314.7996,222.7731 339.4296,203.2441 339.4296,203.2441 L336.0996,225.2091 C336.0996,225.2091 338.6906,221.8431 350.9096,201.3011 M187.3706,224.6971 C184.1376,222.3231 159.6426,202.6251 159.6426,202.6251 L162.8206,224.6121 C162.8206,224.6121 160.2536,221.2291 148.1766,200.6031 C136.0996,179.9771 117.5866,166.3561 117.5866,166.3561 C117.5866,166.3561 136.7006,148.3801 165.9066,137.9181 C169.1686,148.6241 174.1356,157.6381 179.4176,164.9751 C184.3276,176.2401 190.5756,188.7641 197.4526,198.1991 C213.5736,220.3151 249.3756,249.5441 249.3756,249.5441 C249.3756,249.5441 190.6036,227.0701 187.3706,224.6971" id="Fill-17" fill="#004C7E"></path>
            <path d="M268.9893,176.3009 C254.0123,189.0299 249.5853,188.6349 249.5853,188.6349 C249.5853,188.6349 245.1553,188.9999 230.2673,176.1669 C215.3793,163.3349 203.5983,130.2669 203.5983,130.2669 C211.9293,172.9829 249.5363,202.9339 249.5363,202.9339 C249.5363,202.9339 287.3483,173.2419 295.9733,130.5849 C295.9733,130.5849 283.9653,163.5719 268.9893,176.3009" id="Fill-19" fill="#004C7E"></path>
            <path d="M250.082,44.3776 C225.415,53.9096 208.453,80.0036 208.453,80.0036 C229.667,44.3076 250.111,36.1106 250.111,36.1106 C250.111,36.1106 270.497,44.4476 291.465,80.2896 C291.465,80.2896 274.683,54.0796 250.082,44.3776 M300.602,72.7286 C300.602,72.7286 307.127,88.7796 311.992,96.8956 L311.852,88.6276 C311.852,88.6276 293.299,37.6086 250.162,21.0936 C206.913,37.3116 188.009,88.2006 188.009,88.2006 L187.812,96.4676 C192.733,88.3856 199.369,72.3796 199.369,72.3796 C195.574,96.3256 184.162,127.6696 184.162,127.6696 C195.301,175.6256 224.077,197.6586 224.077,197.6586 C198.693,170.5746 193.739,139.1756 193.739,139.1756 C202.922,167.3836 224.276,188.7166 224.276,188.7166 C210.836,172.1356 193.756,134.2826 193.134,119.0946 C192.511,103.9076 204.719,86.5716 204.719,86.5716 C200.639,95.3306 200.279,101.9096 200.279,101.9096 C219.628,68.5686 250.047,54.5016 250.047,54.5016 C250.047,54.5016 280.368,68.7786 299.487,102.2516 C299.487,102.2516 299.173,95.6696 295.154,86.8826 C295.154,86.8826 307.242,104.3026 306.515,119.4856 C305.788,134.6686 288.448,172.4026 274.894,188.8906 C274.894,188.8906 296.395,167.7056 305.77,139.5616 C305.77,139.5616 300.602,170.9256 275.031,197.8336 C275.031,197.8336 303.958,175.9996 315.428,128.1216 C315.428,128.1216 304.231,96.6996 300.602,72.7286" id="Fill-21" fill="#004C7E"></path>
            <path d="M246.4326,130.4142 C248.8336,131.4352 249.7826,131.3112 249.7826,131.3112 C249.7826,131.3112 250.7316,131.4412 253.1396,130.4372 C255.5466,129.4332 258.2016,130.4552 258.2016,130.4552 C258.2016,130.4552 256.5546,130.7662 254.8376,133.1642 C253.1206,135.5622 249.7646,136.6262 249.7646,136.6262 C249.7646,136.6262 246.4146,135.5392 244.7146,133.1292 C243.0146,130.7192 241.3706,130.3972 241.3706,130.3972 C241.3706,130.3972 244.0316,129.3932 246.4326,130.4142 M242.0746,109.8992 C242.0746,109.8992 228.3736,119.7232 220.2816,117.9232 C220.2816,117.9232 220.8366,121.9112 223.9106,129.7042 C226.9836,137.4972 233.4856,142.0122 233.4856,142.0122 C230.0716,141.1142 226.6676,137.4962 226.6676,137.4962 C228.5176,151.3592 241.3826,163.7412 242.3926,164.2502 C243.4036,164.7602 249.6716,163.7062 249.6716,163.7062 C249.6716,163.7062 255.9316,164.8032 256.9456,164.3012 C257.9596,163.7982 270.9096,151.5052 272.8556,137.6552 C272.8556,137.6552 269.4256,141.2492 266.0066,142.1232 C266.0066,142.1232 272.5386,137.6542 275.6656,129.8822 C278.7926,122.1102 279.3756,118.1262 279.3756,118.1262 C271.2716,119.8702 257.6386,109.9532 257.6386,109.9532 C257.6386,109.9532 256.8566,116.5302 258.1686,121.2172 C258.1686,121.2172 254.5766,117.4082 253.5326,108.2932 C253.5326,108.2932 252.2066,107.1502 249.8666,107.1422 C247.5246,107.1342 246.1926,108.2682 246.1926,108.2682 C245.0856,117.3752 241.4656,121.1602 241.4656,121.1602 C242.8106,116.4822 242.0746,109.8992 242.0746,109.8992" id="Fill-23" fill="#004C7E"></path>
            <path d="M203.6782,106.9831 C207.1862,117.2451 228.4072,165.1511 228.4072,165.1511 C228.4072,165.1511 237.7402,174.2951 242.7922,177.0961 C247.8442,179.8981 249.6172,179.2711 249.6172,179.2711 C249.6172,179.2711 251.3862,179.9101 256.4582,177.1431 C261.5292,174.3771 270.9252,165.2981 270.9252,165.2981 C270.9252,165.2981 292.4752,117.5391 296.0532,107.3011 C296.0532,107.3011 291.3432,103.4461 286.5192,95.2891 C289.6932,104.7491 292.3822,107.7951 292.3822,107.7951 C292.3822,107.7951 272.2982,158.6801 263.6702,165.4001 C255.0412,172.1191 253.8542,173.8021 249.6362,173.7881 C245.4182,173.7731 244.2432,172.0821 235.6612,165.3031 C227.0802,158.5251 207.3462,107.5021 207.3462,107.5021 C207.3462,107.5021 210.0562,104.4741 213.2942,95.0371 C208.4162,103.1611 203.6782,106.9831 203.6782,106.9831" id="Fill-25" fill="#004C7E"></path>
            <path d="M277.8008,104.0749 C271.5678,101.2269 264.1258,106.3479 261.0458,106.5059 C261.0458,106.5059 263.0618,109.3389 267.8688,109.4819 C272.6778,109.6249 276.4898,104.7869 276.4898,104.7869 L277.8008,104.0749 Z" id="Fill-27" fill="#FFFFFF"></path>
            <path d="M311.8516,88.6276 L311.9926,96.8956 C310.6776,94.7036 309.2436,91.9316 307.8476,89.0536 C306.6776,83.7006 303.8806,73.8086 297.4856,61.5056 C307.3036,76.1306 311.8516,88.6276 311.8516,88.6276" id="Fill-29" fill="#A0D6F9"></path>
            <path d="M275.0312,197.8336 C307.9672,163.2746 311.1642,129.1186 311.1642,129.1186 C311.1642,129.1186 309.2822,124.4306 305.6762,105.8156 C302.0702,87.2016 300.6012,72.7286 300.6012,72.7286 C304.2312,96.6996 315.4272,128.1216 315.4272,128.1216 C303.9582,175.9996 275.0312,197.8336 275.0312,197.8336" id="Fill-31" fill="#A0D6F9"></path>
            <path d="M221.9536,103.8825 C228.2056,101.0775 235.6116,106.2495 238.6906,106.4285 C238.6906,106.4285 236.6566,109.2485 231.8476,109.3585 C227.0376,109.4675 223.2586,104.6045 223.2586,104.6045 L221.9536,103.8825 Z" id="Fill-33" fill="#FFFFFF"></path>
            <path d="M188.0093,88.2008 L187.8123,96.4678 C189.1413,94.2848 190.5953,91.5228 192.0103,88.6548 C193.2173,83.3098 196.0823,73.4378 202.5623,61.1788 C192.6433,75.7358 188.0093,88.2008 188.0093,88.2008" id="Fill-35" fill="#A0D6F9"></path>
            <path d="M224.0771,197.6584 C191.3801,162.8734 188.4181,128.6964 188.4181,128.6964 C188.4181,128.6964 190.3321,124.0204 194.0661,105.4314 C197.8001,86.8434 199.3691,72.3804 199.3691,72.3804 C195.5741,96.3254 184.1611,127.6694 184.1611,127.6694 C195.3011,175.6254 224.0771,197.6584 224.0771,197.6584" id="Fill-37" fill="#A0D6F9"></path>
            <path d="M288.2822,75.0641 C289.3402,76.7431 290.4012,78.4721 291.4652,80.2901 C291.4652,80.2901 274.6822,54.0801 250.0822,44.3771 C225.4152,53.9101 208.4532,80.0041 208.4532,80.0041 C209.5292,78.1931 210.6022,76.4721 211.6712,74.8001 C206.2482,82.8211 201.8342,92.0311 200.2792,101.9101 C200.2792,101.9101 210.6612,75.6251 229.6062,61.8551 C237.7602,55.9271 244.7442,52.5951 250.0602,50.7171 C255.3632,52.6311 262.3242,56.0121 270.4372,61.9951 C289.2862,75.8951 299.4872,102.2511 299.4872,102.2511 C298.0012,92.3621 293.6502,83.1221 288.2822,75.0641" id="Fill-39" fill="#5686C6"></path>
            <path d="M275.4385,118.1955 C267.5025,117.1255 257.6385,109.9525 257.6385,109.9525 C262.0085,125.8975 268.8995,128.4215 275.4385,118.1955" id="Fill-41" fill="#5686C6"></path>
            <path d="M268.9893,176.3009 C254.0123,189.0299 249.5853,188.6349 249.5853,188.6349 C249.5853,188.6349 245.1553,188.9999 230.2673,176.1669 C228.4353,174.5889 226.6523,172.7009 224.9303,170.6089 C225.5733,172.9049 226.9603,177.2039 229.4933,182.3709 C240.0153,195.3459 249.5363,202.9339 249.5363,202.9339 C249.5363,202.9339 259.1093,195.4119 269.7193,182.5089 C272.2893,177.3599 273.7063,173.0709 274.3643,170.7799 C272.6283,172.8599 270.8313,174.7349 268.9893,176.3009" id="Fill-43" fill="#5686C6"></path>
            <path d="M219.022,58.9499 C219.022,58.9499 233.224,39.8189 250.12,33.5259 C266.972,39.9349 281.041,59.1629 281.041,59.1629 C279.19,47.6839 275.402,40.9219 275.402,40.9219 C275.402,40.9219 279.213,42.2019 287.159,47.9979 C277.762,37.2299 265.522,26.9739 250.162,21.0939 C234.763,26.8679 222.453,37.0389 212.981,47.7419 C220.967,42.0019 224.786,40.7469 224.786,40.7469 C224.786,40.7469 220.952,47.4829 219.022,58.9499" id="Fill-45" fill="#5686C6"></path>
            <path d="M242.0742,109.8996 C242.0742,109.8996 232.1612,117.0036 224.2182,118.0186 C230.6862,128.2896 237.5952,125.8126 242.0742,109.8996" id="Fill-47" fill="#5686C6"></path>
            <path d="M249.7949,127.8649 L253.9099,126.1379 C253.9099,126.1379 258.4139,123.7489 255.9119,117.4679 L255.9089,117.4579 C254.9729,115.3699 253.9979,112.3649 253.5319,108.2939 C253.5319,108.2939 252.2069,107.1509 249.8659,107.1419 C247.5249,107.1349 246.1919,108.2689 246.1919,108.2689 C245.6979,112.3359 244.7029,115.3349 243.7529,117.4159 C243.7509,117.4189 243.7499,117.4229 243.7489,117.4259 C241.2039,123.6899 245.6909,126.1099 245.6909,126.1099 L249.7949,127.8649 Z" id="Fill-49" fill="#5686C6"></path>
            <path d="M228.0483,154.213 C228.8153,160.189 230.7193,165.314 232.4083,168.906 C235.5573,171.769 239.8813,175.483 242.7923,177.096 C247.8433,179.898 249.6173,179.271 249.6173,179.271 C249.6173,179.271 251.3863,179.91 256.4583,177.143 C259.3803,175.549 263.7293,171.866 266.8973,169.026 C268.6123,165.444 270.5513,160.333 271.3593,154.362 C268.4303,159.69 265.7243,163.799 263.6703,165.4 C255.0413,172.119 253.8543,173.802 249.6363,173.788 C245.4183,173.773 244.2433,172.082 235.6613,165.303 C233.6173,163.689 230.9403,159.561 228.0483,154.213" id="Fill-51" fill="#5686C6"></path>
            <path d="M249.6367,173.7878 C245.9867,173.7748 244.6067,172.4998 238.7437,167.7668 C239.5047,171.5448 241.1087,174.6878 242.7137,177.0498 C242.7387,177.0638 242.7667,177.0828 242.7917,177.0968 C247.8437,179.8978 249.6177,179.2708 249.6177,179.2708 C249.6177,179.2708 251.3867,179.9098 256.4577,177.1428 C256.4837,177.1298 256.5117,177.1108 256.5367,177.0968 C258.1577,174.7468 259.7827,171.6148 260.5707,167.8428 C254.6757,172.5348 253.2857,173.7998 249.6367,173.7878" id="Fill-53" fill="#A0D6F9"></path>
            <path d="M239.6436,111.5085 C237.3746,112.9355 233.7806,115.0105 230.0076,116.4605 C234.5726,119.4855 237.0096,116.1515 239.6436,111.5085" id="Fill-55" fill="#A0D6F9"></path>
            <path d="M249.5854,188.6349 C249.5854,188.6349 246.0574,188.9159 234.7464,179.8879 C236.6574,184.6829 241.8564,195.8829 249.5514,198.3789 C257.2644,195.9359 262.5404,184.7729 264.4844,179.9909 C253.1114,188.9409 249.5854,188.6349 249.5854,188.6349" id="Fill-57" fill="#A0D6F9"></path>
            <path d="M247.5801,107.5329 C247.3911,111.8649 247.1991,122.4029 249.8131,122.4119 C252.4281,122.4209 252.3091,111.8819 252.1491,107.5489 C251.5591,107.3299 250.7971,107.1459 249.8661,107.1419 C248.9351,107.1389 248.1711,107.3179 247.5801,107.5329" id="Fill-59" fill="#A0D6F9"></path>
            <path d="M250.1621,21.0939 C241.1851,24.4599 233.2601,29.3229 226.3321,34.9119 C235.3281,31.0599 240.5161,29.5809 240.5161,29.5809 L238.7321,32.9499 C238.7321,32.9499 245.3241,29.5979 250.1331,29.6149 C254.9411,29.6309 261.5101,33.0279 261.5101,33.0279 L259.7501,29.6479 C259.7501,29.6479 264.9281,31.1609 273.8961,35.0749 C267.0081,29.4389 259.1161,24.5219 250.1621,21.0939" id="Fill-61" fill="#A0D6F9"></path>
            <path d="M269.6602,116.5968 C265.8962,115.1208 262.3172,113.0218 260.0572,111.5788 C262.6602,116.2398 265.0742,119.5898 269.6602,116.5968" id="Fill-63" fill="#A0D6F9"></path>
            <path d="M272.5596,58.7199 C266.2676,53.1399 258.6516,47.7569 250.0816,44.3779 C241.4906,47.6979 233.8376,53.0279 227.5056,58.5649 C227.6876,58.4569 243.7746,48.9049 250.0706,47.6679 C256.3576,48.9479 272.3786,58.6109 272.5596,58.7199" id="Fill-65" fill="#A0D6F9"></path>
            <path d="M372.2637,159.5221 C363.9117,153.3181 350.4647,144.6641 333.6127,138.4951 C330.2757,149.1781 325.2467,158.1591 319.9137,165.4591 C314.9277,176.6901 308.5937,189.1711 301.6517,198.5581 C292.1267,211.4371 275.8507,226.6981 263.9837,237.1471 C278.1967,229.8761 298.4317,219.3941 303.8687,215.9021 C312.4927,210.3641 357.9667,160.5841 357.9667,160.5841 L353.1707,156.8501 C353.1707,156.8501 356.2657,156.4501 372.2637,159.5221" id="Fill-67" fill="#5686C6"></path>
            <path d="M278.2656,208.2858 C262.2416,218.2948 249.4756,220.5238 249.4756,220.5238 C249.4756,220.5238 236.7256,218.2068 220.7706,208.0878 C224.7656,213.4488 230.7606,220.9508 236.3696,225.8448 C244.1646,230.9188 249.4326,232.9248 249.4326,232.9248 C249.4326,232.9248 254.7146,230.9558 262.5436,225.9348 C268.1876,221.0798 274.2346,213.6188 278.2656,208.2858" id="Fill-69" fill="#5686C6"></path>
            <path d="M197.4526,198.1994 C190.5756,188.7644 184.3276,176.2404 179.4176,164.9744 C174.1356,157.6384 169.1686,148.6234 165.9066,137.9174 C149.0116,143.9704 135.5046,152.5314 127.1106,158.6784 C143.1296,155.7164 146.2206,156.1374 146.2206,156.1374 L141.3996,159.8394 C141.3996,159.8394 186.5296,209.9304 195.1156,215.5284 C200.5286,219.0574 220.6916,229.6794 234.8536,237.0474 C223.0586,226.5164 206.8886,211.1444 197.4526,198.1994" id="Fill-71" fill="#5686C6"></path>
            <path d="M333.6123,138.4953 C330.2753,149.1783 325.2473,158.1593 319.9143,165.4583 C314.9273,176.6903 308.5933,189.1713 301.6513,198.5583 C299.0743,202.0433 296.0003,205.7033 292.6553,209.3943 C299.1873,204.5473 308.8723,197.3353 313.0553,194.0943 C319.6533,188.9803 337.5093,148.1913 337.5093,148.1913 C337.5093,148.1913 342.8413,146.8433 359.7333,151.1133 C352.4693,146.7203 343.6423,142.1663 333.6123,138.4953" id="Fill-73" fill="#A0D6F9"></path>
            <path d="M179.418,164.9748 C174.135,157.6388 169.169,148.6238 165.906,137.9178 C155.851,141.5198 146.993,146.0128 139.698,150.3558 C156.62,146.2018 161.942,147.5868 161.942,147.5868 C161.942,147.5868 179.517,188.4968 186.079,193.6568 C190.24,196.9278 199.875,204.2048 206.374,209.0978 C203.054,205.3828 200.005,201.7018 197.453,198.1998 C190.575,188.7648 184.327,176.2408 179.418,164.9748" id="Fill-75" fill="#A0D6F9"></path>
            <path d="M236.4985,216.3151 C239.2945,221.2581 243.6505,226.7111 249.4525,227.2721 C255.2575,226.7511 259.6515,221.3281 262.4815,216.4051 C254.6245,219.6211 249.4755,220.5241 249.4755,220.5241 C249.4755,220.5241 244.3315,219.5861 236.4985,216.3151" id="Fill-77" fill="#A0D6F9"></path>
            <path d="M132.9316,193.4733 C162.8206,224.6123 162.7656,240.7253 162.7656,240.7253 C162.7656,240.7253 147.4806,231.3923 146.2306,226.9163 C144.9806,222.4423 132.9316,193.4733 132.9316,193.4733" id="Fill-79" fill="#004C7E"></path>
            <path d="M366.2031,194.2765 C336.0991,225.2085 336.0451,241.3215 336.0451,241.3215 C336.0451,241.3215 351.3931,232.0945 352.6751,227.6275 C353.9551,223.1605 366.2031,194.2765 366.2031,194.2765" id="Fill-81" fill="#004C7E"></path>
            <path d="M121.8213,186.1706 C109.1133,201.5656 103.1003,220.7786 103.1003,220.7786 L98.6743,220.0046 C98.6743,220.0046 105.4573,197.6296 121.8213,186.1706" id="Fill-83" fill="#A0D6F9"></path>
            <path d="M117.5869,166.3556 L128.5929,167.3386 C128.5929,167.3386 150.7909,192.1336 162.8209,224.6116 C162.8209,224.6116 142.0659,186.6266 117.5869,166.3556" id="Fill-85" fill="#A0D6F9"></path>
            <path d="M377.3633,187.0504 C389.9653,202.5314 395.8453,221.7864 395.8453,221.7864 L400.2773,221.0424 C400.2773,221.0424 393.6473,198.6214 377.3633,187.0504" id="Fill-87" fill="#A0D6F9"></path>
            <path d="M381.7344,167.2653 L370.7214,168.1723 C370.7214,168.1723 348.3544,192.8133 336.0994,225.2083 C336.0994,225.2083 357.1154,187.3683 381.7344,167.2653" id="Fill-89" fill="#A0D6F9"></path>
            <path d="M19.9902,218.3063 L39.6422,241.0203 C40.6612,242.1983 41.4882,243.1523 42.2842,244.0553 L40.6782,263.5473 L33.4522,351.0903 L33.4522,351.1013 L33.4312,351.3033 L33.8152,351.2033 L67.6752,360.7873 L67.6752,360.7963 L67.6572,360.9663 L83.3452,356.8983 C86.4572,356.0903 88.7252,355.5103 91.0352,354.9393 C92.7152,354.5283 94.4202,354.1163 96.4912,353.6203 C96.7132,353.5703 96.9442,353.5203 97.1742,353.4613 C97.4212,353.4023 97.6592,353.3433 97.8902,353.2933 L98.3422,353.1843 C98.7852,353.0753 99.2202,352.9743 99.6372,352.8813 L100.8482,352.6053 C131.0242,346.5253 181.2142,339.3463 249.1392,339.5793 C322.8322,339.8333 375.5902,348.6693 404.5822,355.1843 L404.7612,355.2273 L405.0412,355.2963 L405.9092,355.5123 L408.3862,356.1343 L409.2032,356.3413 L420.0122,359.0193 L420.0122,358.9683 L452.1762,348.9903 L452.1762,348.9283 L451.6052,341.3033 L445.8372,264.3453 L458.9542,264.9883 L458.9642,264.9883 L457.4932,245.4853 C457.6852,245.2633 457.8882,245.0413 458.0932,244.7993 C458.3052,244.5673 458.5192,244.3343 458.7322,244.0823 C458.9562,243.8293 459.1792,243.5773 459.4132,243.3053 C459.6572,243.0423 459.9012,242.7603 460.1552,242.4673 L479.9542,219.8893 L19.9902,218.3063 Z" id="Fill-91" fill="#000022"></path>
            <path d="M443.4199,240.6618 C443.7199,244.6298 443.8699,246.6138 444.1699,250.5818 C438.9249,250.3248 436.3019,250.2008 431.0539,249.9598 C433.0819,277.0298 435.1099,304.0998 437.1399,331.1708 C430.1069,329.4228 426.5829,328.5908 419.5219,327.0068 C417.6279,301.0728 415.7359,275.1388 413.8439,249.2048 C408.6789,248.9888 406.0959,248.8848 400.9289,248.6838 L399.8399,233.2788 C416.5199,233.3368 433.1989,233.3938 449.8789,233.4508 C447.2999,236.3908 446.0079,237.8318 443.4199,240.6618 M350.7509,233.1098 C358.5269,233.1368 362.4149,233.1498 370.1909,233.1768 C375.5469,242.5038 380.8109,251.8808 386.0389,261.2788 C386.0949,261.2828 386.1229,261.2838 386.1799,261.2878 C385.5539,251.9328 384.9279,242.5798 384.3019,233.2248 C389.8199,233.2448 392.5799,233.2538 398.0989,233.2728 C399.8079,257.5768 401.5159,281.8818 403.2249,306.1858 C397.5549,305.2448 394.7159,304.7968 389.0339,303.9408 C388.6249,297.8388 388.4209,294.7868 388.0129,288.6838 C382.7419,278.9738 377.4329,269.2858 372.0239,259.6508 C371.9529,259.6468 371.9179,259.6448 371.8479,259.6408 C372.7289,273.7168 373.6079,287.7918 374.4889,301.8678 C368.7959,301.0998 365.9459,300.7378 360.2419,300.0568 C359.0509,279.3428 357.8599,258.6288 356.6699,237.9138 C354.2969,235.9738 353.1129,235.0128 350.7509,233.1098 M328.6229,243.8788 C328.8359,248.6668 328.9429,251.0598 329.1559,255.8488 C329.1609,255.9588 331.6249,257.8618 336.5889,261.6948 C336.2489,254.6228 336.0789,251.0858 335.7379,244.0138 C332.8929,243.9578 331.4699,243.9308 328.6229,243.8788 M308.6989,232.9658 C320.1959,233.0048 331.6929,233.0448 343.1909,233.0838 C343.3299,233.0848 345.3449,234.6358 349.2659,237.8278 C350.3779,258.2768 351.4909,278.7258 352.6039,299.1758 C346.8949,298.5398 344.0379,298.2428 338.3199,297.6928 C337.9509,290.0108 337.5819,282.3278 337.2119,274.6438 C337.2069,274.5338 334.6989,272.4948 329.7279,268.6678 C330.1489,278.1178 330.5699,287.5668 330.9909,297.0168 C325.2709,296.5118 322.4079,296.2788 316.6809,295.8588 C315.9569,276.3988 315.2329,256.9388 314.5099,237.4798 C312.1799,235.6618 311.0179,234.7598 308.6989,232.9658 M266.6469,232.8198 C280.0829,232.8668 293.5199,232.9128 306.9559,232.9588 C307.2459,241.7688 307.5369,250.5808 307.8269,259.3908 C302.4379,255.3878 297.6829,251.7998 293.5459,248.5718 C293.4949,246.4838 293.4689,245.4398 293.4169,243.3518 C290.5689,243.3188 289.1459,243.3038 286.2979,243.2738 C286.4209,249.3168 286.4819,252.3388 286.6049,258.3818 C290.3719,258.4578 292.2559,258.4988 296.0239,258.5918 C296.1649,258.5948 298.5399,260.3798 303.1919,264.0348 C300.4409,266.0068 299.0619,266.9868 296.2929,268.9438 C292.5019,268.8208 290.6059,268.7648 286.8129,268.6628 C286.9359,274.7068 286.9969,277.7278 287.1189,283.7708 C290.0409,283.8768 291.5019,283.9338 294.4229,284.0588 C294.3709,281.9708 294.3459,280.9268 294.2939,278.8388 C299.3609,275.1368 303.9699,271.8228 308.1409,268.8958 C308.4319,277.7068 308.7219,286.5168 309.0129,295.3278 C297.0049,294.6038 285.0069,294.0468 272.9829,293.6538 C272.7699,274.8318 272.5549,256.0098 272.3409,237.1868 C270.0569,235.4358 268.9179,234.5628 266.6469,232.8198 M243.9609,243.0068 C243.9269,247.5368 243.9099,249.8028 243.8769,254.3338 C243.8759,254.4368 244.5079,254.9038 245.7769,255.7358 C245.9179,255.7358 247.6869,254.4508 251.0579,251.8898 C251.0659,248.3448 251.0709,246.5718 251.0809,243.0278 C248.2329,243.0168 246.8089,243.0138 243.9609,243.0068 M224.5959,232.6758 C236.0929,232.7148 247.5899,232.7548 259.0869,232.7948 C259.2269,232.7948 261.1639,234.2428 264.9329,237.1508 C264.9769,243.7878 264.9979,247.1058 265.0409,253.7428 C260.6689,256.9738 258.4709,258.5888 254.0499,261.8288 C258.4659,265.1188 260.6859,266.7698 265.1489,270.1018 L265.3009,293.4728 C259.5609,293.3588 256.6899,293.3238 250.9469,293.2968 C250.9699,284.6628 250.9819,280.3468 251.0049,271.7128 C251.0049,271.6088 248.5839,269.8498 243.7869,266.4638 L243.5889,293.2908 C237.8469,293.3078 234.9769,293.3378 229.2349,293.4398 C229.5459,274.6398 229.8569,255.8388 230.1679,237.0378 C227.9319,235.2968 226.8179,234.4248 224.5959,232.6758 M182.5439,232.5308 C195.9809,232.5768 209.4169,232.6238 222.8539,232.6698 C222.6549,241.9478 222.4569,251.2258 222.2589,260.5038 C217.0639,256.8018 212.4929,253.3948 208.5249,250.2768 C208.6119,247.3828 208.6559,245.9358 208.7429,243.0418 C205.8949,243.0538 204.4709,243.0608 201.6229,243.0768 C201.1529,256.6958 200.6839,270.3158 200.2139,283.9348 C203.1359,283.8188 204.5969,283.7658 207.5189,283.6668 C207.7319,276.6048 207.8379,273.0738 208.0509,266.0128 C213.2039,269.7078 217.8359,273.0638 221.9259,276.1038 C221.7759,283.1048 221.7019,286.6058 221.5519,293.6078 C211.5499,293.8668 201.5519,294.2818 191.5629,294.8528 C191.4179,294.8608 189.4559,293.4968 185.7099,290.7378 C186.4719,272.8358 187.2349,254.9328 187.9969,237.0308 C185.8099,235.2418 184.7189,234.3428 182.5439,232.5308 M140.4919,232.3858 C153.9289,232.4328 167.3649,232.4778 180.8019,232.5248 C180.3849,241.4548 179.9679,250.3848 179.5509,259.3138 C174.4699,255.5698 170.0009,252.0768 166.1239,248.8498 C166.2409,246.6678 166.2999,245.5758 166.4179,243.3918 C163.5709,243.4278 162.1479,243.4458 159.3009,243.4848 C159.0219,248.3548 158.8829,250.7898 158.6039,255.6598 C165.3479,260.9768 172.1329,266.2078 178.9879,271.3828 C178.6169,279.3158 178.4319,283.2828 178.0619,291.2178 C178.0569,291.3258 175.9829,292.9478 171.8129,296.1868 C161.8349,296.9648 151.8689,297.8988 141.9199,298.9888 C142.5159,289.5828 143.1109,280.1768 143.7069,270.7698 C148.7069,274.5458 153.1949,277.9318 157.1539,280.9828 C157.0279,283.1898 156.9639,284.2928 156.8379,286.4998 C159.7529,286.2708 161.2099,286.1618 164.1259,285.9528 C164.3849,281.1348 164.5149,278.7248 164.7739,273.9068 C157.9499,268.6978 151.2089,263.4288 144.5119,258.0578 C145.0409,249.7008 145.3059,245.5218 145.8349,237.1658 C143.6919,235.2718 142.6239,234.3168 140.4919,232.3858 M119.3099,232.3128 C127.0859,232.3398 130.9739,232.3528 138.7499,232.3798 C137.2599,254.8718 135.7709,277.3638 134.2809,299.8558 C128.5759,300.5278 125.7249,300.8858 120.0289,301.6418 C121.5529,280.1908 123.0779,258.7388 124.6019,237.2878 C122.4799,235.3198 121.4209,234.3258 119.3099,232.3128 M49.9819,232.0738 C58.0259,232.1018 66.0699,232.1298 74.1149,232.1568 C77.2369,245.2618 80.4259,258.3488 83.8279,271.3838 C83.9149,271.3758 83.9589,271.3718 84.0469,271.3638 C89.3019,258.2958 94.6269,245.2578 100.0209,232.2468 L117.1469,232.3058 C115.0079,261.4538 112.8689,290.6018 110.7299,319.7498 C103.6149,320.9978 100.0639,321.6628 92.9729,323.0738 C93.9639,310.2948 94.9559,297.5158 95.9469,284.7358 C95.8589,284.7468 95.8149,284.7518 95.7269,284.7628 C90.6629,298.2388 85.0759,311.5318 79.7679,324.9148 C79.6789,324.9338 79.6339,324.9438 79.5449,324.9628 C76.1009,312.7218 72.4959,300.4578 69.7779,288.0248 C69.6909,288.0368 69.6469,288.0438 69.5589,288.0558 C68.4489,301.6638 67.3399,315.2728 66.2309,328.8818 C59.1799,330.5418 55.6609,331.4128 48.6399,333.2368 C51.2239,301.9338 53.8069,270.6318 56.3909,239.3288 C53.8219,236.4808 52.5409,235.0308 49.9819,232.0738" id="Fill-93" fill="#FFFFFF"></path>
            <path d="M179.1768,311.0768 C179.1798,310.1768 179.1818,309.7258 179.1848,308.8258 C180.6948,308.7198 181.4488,308.6668 182.9588,308.5658 C182.9468,312.1868 182.9398,313.9988 182.9268,317.6208 C180.9838,317.7508 180.0118,317.8178 178.0688,317.9588 C176.1558,318.0968 175.2038,317.1268 175.2108,315.0398 C175.2278,310.1348 175.2368,307.6818 175.2538,302.7758 C175.2608,300.6558 176.2198,299.5218 178.1328,299.3838 C178.8148,299.3348 179.1558,299.3098 179.8378,299.2628 C181.9398,299.1138 182.9878,300.1228 182.9808,302.2788 C182.9778,303.0868 182.9758,303.4898 182.9728,304.2968 C181.9808,304.3638 181.4848,304.3968 180.4918,304.4668 C180.4938,303.8048 180.4948,303.4728 180.4978,302.8098 C180.5008,301.9138 180.1488,301.4898 179.4428,301.5398 L178.8228,301.5838 C178.0988,301.6358 177.7358,302.1108 177.7328,303.0078 C177.7168,307.5598 177.7088,309.8368 177.6928,314.3898 C177.6898,315.2878 178.0508,315.7088 178.7738,315.6578 C179.4458,315.6088 179.7818,315.5858 180.4538,315.5388 C180.4598,313.7178 180.4628,312.8068 180.4688,310.9858 C179.9518,311.0218 179.6938,311.0408 179.1768,311.0768" id="Fill-95" fill="#ED254E"></path>
            <path d="M209.0552,307.1774 C209.0632,304.7034 209.0682,303.4674 209.0762,300.9934 C209.0782,300.2704 208.7182,299.9214 207.9932,299.9504 C207.7242,299.9614 207.5892,299.9664 207.3202,299.9784 C206.5962,300.0074 206.2322,300.3864 206.2302,301.1104 C206.2222,303.5834 206.2172,304.8204 206.2092,307.2934 C207.3472,307.2454 207.9162,307.2224 209.0552,307.1774 M206.1782,316.3484 C205.1842,316.3904 204.6872,316.4114 203.6942,316.4564 C203.7152,310.2994 203.7252,307.2204 203.7472,301.0634 C203.7542,298.9434 204.7492,297.8354 206.7332,297.7524 C207.4782,297.7214 207.8512,297.7064 208.5962,297.6764 C210.5802,297.5974 211.5692,298.6224 211.5612,300.7434 C211.5402,306.9014 211.5292,309.9804 211.5082,316.1374 C210.5142,316.1734 210.0172,316.1934 209.0242,316.2324 C209.0332,313.5104 209.0382,312.1504 209.0472,309.4284 C207.9092,309.4734 207.3392,309.4964 206.2012,309.5444 C206.1912,312.2664 206.1872,313.6264 206.1782,316.3484" id="Fill-97" fill="#ED254E"></path>
            <path d="M237.6792,307.8786 C238.6162,303.5036 239.0842,301.3166 240.0212,296.9426 C241.1182,296.9366 241.6672,296.9336 242.7652,296.9286 C242.7402,304.3586 242.7272,308.0736 242.7012,315.5036 C241.7072,315.5076 241.2102,315.5096 240.2162,315.5166 C240.3362,310.6516 240.3962,308.2206 240.5162,303.3566 C239.7592,306.8786 239.3802,308.6406 238.6222,312.1646 C237.8562,312.1716 237.4732,312.1746 236.7062,312.1826 C235.9732,308.6716 235.6062,306.9166 234.8722,303.4076 C234.9592,308.2706 235.0032,310.7006 235.0902,315.5636 C234.0962,315.5746 233.5982,315.5816 232.6042,315.5966 C232.6302,308.1666 232.6422,304.4516 232.6682,297.0216 C233.7662,297.0056 234.3152,296.9986 235.4122,296.9856 C236.3192,301.3416 236.7722,303.5206 237.6792,307.8786" id="Fill-99" fill="#ED254E"></path>
            <path d="M263.9307,315.6588 C263.9567,308.2288 263.9697,304.5138 263.9947,297.0838 C264.9897,297.1018 265.4867,297.1118 266.4807,297.1338 L266.4167,315.7078 C265.4227,315.6868 264.9257,315.6778 263.9307,315.6588" id="Fill-101" fill="#ED254E"></path>
            <path d="M292.8184,307.0338 C292.8314,303.4428 292.8374,301.6478 292.8494,298.0568 C293.8424,298.1058 294.3394,298.1318 295.3324,298.1818 C295.3064,305.6118 295.2944,309.3268 295.2674,316.7578 C294.2754,316.7058 293.7784,316.6808 292.7864,316.6328 C292.7914,315.1528 292.7934,314.4128 292.7984,312.9328 C291.7444,309.4968 291.2164,307.7798 290.1634,304.3458 C290.1464,309.2108 290.1374,311.6418 290.1214,316.5058 C289.1284,316.4598 288.6314,316.4368 287.6374,316.3938 C287.6634,308.9648 287.6754,305.2498 287.7014,297.8188 C288.6954,297.8628 289.1914,297.8848 290.1854,297.9298 C291.2384,301.5708 291.7654,303.3908 292.8184,307.0338" id="Fill-103" fill="#ED254E"></path>
            <path d="M320.3125,311.5768 C320.3165,310.6768 320.3175,310.2258 320.3205,309.3258 C321.8295,309.4438 322.5835,309.5038 324.0905,309.6278 C324.0785,313.2498 324.0725,315.0598 324.0595,318.6818 C322.1185,318.5228 321.1465,318.4458 319.2055,318.2968 C317.2925,318.1488 316.3405,317.0368 316.3475,314.9498 C316.3645,310.0448 316.3735,307.5918 316.3895,302.6858 C316.3975,300.5658 317.3565,299.5738 319.2685,299.7218 C319.9505,299.7738 320.2915,299.8008 320.9735,299.8538 C323.0735,300.0198 324.1205,301.1848 324.1125,303.3418 C324.1095,304.1478 324.1085,304.5528 324.1055,305.3588 C323.1145,305.2778 322.6185,305.2378 321.6255,305.1588 C321.6285,304.4968 321.6295,304.1648 321.6315,303.5028 C321.6345,302.6058 321.2835,302.1288 320.5785,302.0738 L319.9585,302.0248 C319.2345,301.9698 318.8715,302.3898 318.8685,303.2868 C318.8525,307.8408 318.8445,310.1168 318.8295,314.6698 C318.8265,315.5668 319.1855,316.0428 319.9095,316.0988 C320.5815,316.1508 320.9165,316.1778 321.5875,316.2308 C321.5945,314.4098 321.5975,313.4998 321.6035,311.6788 C321.0875,311.6378 320.8295,311.6168 320.3125,311.5768" id="Fill-105" fill="#ED254E"></path>
        </g>
        <g id="Group-110" transform="translate(189.000000, 308.665000)">
            <mask id="mask-2" fill="white">
                <use xlink:href="#path-1"></use>
            </mask>
            <g id="Clip-109"></g>
            <path d="M1.35,1.064 L0.33,24.999 C1.974,26.198 2.932,26.874 3.481,27.252 L3.481,27.252 C11.982,26.776 20.572,26.41 29.082,26.16 L29.082,26.16 L29.344,13.86 C27.274,12.331 24.988,10.663 22.392,8.784 L22.392,8.784 L21.96,23.097 L18.637,23.209 C15.725,23.305 14.268,23.36 11.355,23.476 L11.355,23.476 L7.541,23.627 L8.328,0.813 C5.994,0.891 3.667,0.975 1.35,1.064" id="Fill-108" fill="url(#linearGradient-3)" mask="url(#mask-2)"></path>
        </g>
        <g id="Group-113" transform="translate(246.000000, 308.665000)">
            <mask id="mask-5" fill="white">
                <use xlink:href="#path-4"></use>
            </mask>
            <g id="Clip-112"></g>
            <path d="M0.453,0.008 C8.522,5.706 8.546,5.772 8.548,7.708 L8.548,7.708 L8.5,25.774 C11.084,25.793 13.182,25.818 15.734,25.861 L15.734,25.861 L15.616,7.887 C13.114,6.018 11.29,4.66 9.07,3.007 L9.07,3.007 L5.043,0.007 L5.015,0.007 C4.588,0.005 4.162,0.004 3.736,0.004 L3.736,0.004 C2.641,0.004 1.549,0.008 0.453,0.008" id="Fill-111" fill="url(#linearGradient-6)" mask="url(#mask-5)"></path>
        </g>
        <g id="Group-116" transform="translate(232.000000, 308.665000)">
            <mask id="mask-8" fill="white">
                <use xlink:href="#path-7"></use>
            </mask>
            <g id="Clip-115"></g>
            <path d="M1.265,0.064 L0.838,25.836 C3.391,25.796 5.489,25.775 8.071,25.761 L8.071,25.761 L8.262,0.011 C5.921,0.021 3.594,0.044 1.265,0.064" id="Fill-114" fill="url(#linearGradient-9)" mask="url(#mask-8)"></path>
        </g>
        <g id="Group-119" transform="translate(52.000000, 314.665000)">
            <mask id="mask-11" fill="white">
                <use xlink:href="#path-10"></use>
            </mask>
            <g id="Clip-118"></g>
            <path d="M35.126,3.204 L34.531,4.682 L29.154,5.17 L28.85,4.007 C20.594,5.092 12.573,6.258 4.796,7.498 L4.796,7.498 L0.581,58.561 C4.12,57.659 6.985,56.956 10.909,56.026 L10.909,56.026 L14.259,14.915 L20.536,14.051 L21.239,17.268 C23.215,26.301 25.706,35.4 28.211,44.289 L28.211,44.289 C28.826,42.762 29.444,41.238 30.061,39.711 L30.061,39.711 C33.529,31.146 37.114,22.286 40.409,13.515 L40.409,13.515 L41.167,11.5 L47.814,10.703 L44.866,48.694 C48.529,47.981 51.435,47.442 55.398,46.739 L55.398,46.739 L58.789,0.527 C50.721,1.348 42.829,2.242 35.126,3.204" id="Fill-117" fill="url(#linearGradient-12)" mask="url(#mask-11)"></path>
        </g>
        <g id="Group-122" transform="translate(123.000000, 312.665000)">
            <mask id="mask-14" fill="white">
                <use xlink:href="#path-13"></use>
            </mask>
            <g id="Clip-121"></g>
            <path d="M2.895,1.088 L0.872,29.563 C3.31,29.247 5.37,28.992 7.94,28.684 L7.94,28.684 L9.807,0.497 C7.49,0.689 5.186,0.886 2.895,1.088" id="Fill-120" fill="url(#linearGradient-15)" mask="url(#mask-14)"></path>
        </g>
        <g id="Group-125" transform="translate(145.000000, 310.665000)">
            <mask id="mask-17" fill="white">
                <use xlink:href="#path-16"></use>
            </mask>
            <g id="Clip-124"></g>
            <path d="M15.957,0.5 C17.94,2.035 19.929,3.567 21.924,5.092 L21.924,5.092 L23.413,6.227 L22.494,23.263 L19.379,23.487 C16.473,23.695 15.02,23.804 12.115,24.032 L12.115,24.032 L8.069,24.35 L8.509,16.65 C6.42,15.048 4.206,13.367 1.827,11.568 L1.827,11.568 L0.722,29.018 C8.958,28.152 17.263,27.387 25.477,26.738 L25.477,26.738 C26.904,25.629 28.559,24.34 29.595,23.516 L29.595,23.516 L30.361,7.081 C27.338,4.793 24.328,2.49 21.342,0.187 L21.342,0.187 C19.541,0.288 17.746,0.392 15.957,0.5" id="Fill-123" fill="url(#linearGradient-18)" mask="url(#mask-17)"></path>
        </g>
        <g id="Group-128" transform="translate(319.000000, 309.665000)">
            <mask id="mask-20" fill="white">
                <use xlink:href="#path-19"></use>
            </mask>
            <g id="Clip-127"></g>
            <path d="M1.104,27.56 C3.704,27.757 5.788,27.925 8.272,28.136 L8.272,28.136 L7.071,1.199 C4.761,1.07 2.439,0.95 0.11,0.832 L0.11,0.832 L1.104,27.56 Z" id="Fill-126" fill="url(#linearGradient-21)" mask="url(#mask-20)"></path>
        </g>
        <g id="Group-131" transform="translate(361.000000, 312.665000)">
            <mask id="mask-23" fill="white">
                <use xlink:href="#path-22"></use>
            </mask>
            <g id="Clip-130"></g>
            <path d="M2.608,28.894 C5.21,29.209 7.274,29.469 9.684,29.785 L9.684,29.785 L7.901,1.286 C5.609,1.081 3.304,0.881 0.987,0.689 L0.987,0.689 L2.608,28.894 Z" id="Fill-129" fill="url(#linearGradient-24)" mask="url(#mask-23)"></path>
        </g>
        <g id="Group-134" transform="translate(276.000000, 308.665000)">
            <mask id="mask-26" fill="white">
                <use xlink:href="#path-25"></use>
            </mask>
            <g id="Clip-133"></g>
            <path d="M0.488,26.227 C10.084,26.567 19.761,27.014 29.343,27.564 L29.343,27.564 L28.817,11.596 C26.653,13.145 24.352,14.808 21.882,16.607 L21.882,16.607 L22.059,23.761 L18.271,23.598 C15.36,23.475 13.904,23.417 10.991,23.312 L10.991,23.312 L7.645,23.19 L7.195,1.021 L10.908,1.121 C14.29,1.212 16.168,1.267 19.219,1.365 L19.219,1.365 C19.471,1.188 19.699,1.025 19.931,0.86 L19.931,0.86 C13.408,0.64 6.83,0.459 0.194,0.324 L0.194,0.324 L0.488,26.227 Z" id="Fill-132" fill="url(#linearGradient-27)" mask="url(#mask-26)"></path>
        </g>
        <g id="Group-137" transform="translate(419.000000, 318.665000)">
            <mask id="mask-29" fill="white">
                <use xlink:href="#path-28"></use>
            </mask>
            <g id="Clip-136"></g>
            <path d="M3.864,50.127 C7.798,51.016 10.671,51.689 14.24,52.559 L14.24,52.559 L10.481,2.383 C7.118,1.886 3.716,1.401 0.273,0.931 L0.273,0.931 L3.864,50.127 Z" id="Fill-135" fill="url(#linearGradient-30)" mask="url(#mask-29)"></path>
        </g>
        <g id="Group-140" transform="translate(382.000000, 314.665000)">
            <mask id="mask-32" fill="white">
                <use xlink:href="#path-31"></use>
            </mask>
            <g id="Clip-139"></g>
            <path d="M9.126,16.994 L9.496,17.675 L10.379,30.863 C12.953,31.257 14.998,31.577 17.375,31.962 L17.375,31.962 L15.282,2.171 C10.301,1.601 5.251,1.058 0.134,0.543 L0.134,0.543 C2.904,5.569 5.861,10.977 9.126,16.994" id="Fill-138" fill="url(#linearGradient-33)" mask="url(#mask-32)"></path>
        </g>
        <g id="Group-143" transform="translate(332.000000, 310.665000)">
            <mask id="mask-35" fill="white">
                <use xlink:href="#path-34"></use>
            </mask>
            <g id="Clip-142"></g>
            <path d="M8.751,8.467 L9.713,28.463 C12.329,28.72 14.404,28.933 16.839,29.196 L16.839,29.196 L15.334,1.554 C13.03,1.387 10.721,1.225 8.395,1.072 L8.395,1.072 L8.497,3.19 L5.514,0.887 C3.956,0.786 2.403,0.683 0.836,0.589 L0.836,0.589 C8.635,6.595 8.661,6.683 8.751,8.467" id="Fill-141" fill="url(#linearGradient-36)" mask="url(#mask-35)"></path>
        </g>
        <g id="Group-154" transform="translate(154.000000, 91.665000)">
            <polygon id="Fill-144" fill="#ED254E" points="95.0312 327.2145 0.4822 301.0915 94.9812 341.7415 95.0062 334.5685 189.7582 301.7425"></polygon>
            <path d="M96.0474,7.5011 C96.0474,7.5011 64.2234,13.2981 46.2794,54.9101 C46.2794,54.9101 76.6584,27.4811 95.9784,27.5471 C115.2974,27.6141 145.4874,55.2511 145.4874,55.2511 C127.0414,12.1631 96.0474,7.5011 96.0474,7.5011" id="Fill-146" fill="#004C7E"></path>
            <path d="M72.9297,14.2624 C62.6617,25.7794 59.5847,37.5784 59.5847,37.5784 C59.5847,37.5784 75.8367,21.6064 96.0927,18.9764 L96.1457,3.7174 C96.1457,3.7174 83.4937,5.7354 72.9297,14.2624" id="Fill-148" fill="#5686C6"></path>
            <path d="M119.2871,14.422 C129.4751,26.009 132.4731,37.83 132.4731,37.83 C132.4731,37.83 116.3301,21.745 96.0931,18.976 L96.1451,3.717 C96.1451,3.717 108.7821,5.822 119.2871,14.422" id="Fill-150" fill="#5686C6"></path>
            <path d="M96.0708,0.6676 C81.3868,1.9746 74.3318,17.7206 74.3318,17.7206 C85.1538,10.8396 96.0418,9.1896 96.0418,9.1896 C96.0418,9.1896 106.9178,10.9146 117.6928,17.8696 C117.6928,17.8696 110.7448,2.0756 96.0708,0.6676" id="Fill-152" fill="#A0D6F9"></path>
        </g>
    </g>
</svg>