<?xml version="1.0" encoding="iso-8859-1"?>
<!-- Generator: Adobe Illustrator 16.0.0, SVG Export Plug-In . SVG Version: 6.00 Build 0)  -->
<!DOCTYPE svg PUBLIC "-//W3C//DTD SVG 1.1//EN" "http://www.w3.org/Graphics/SVG/1.1/DTD/svg11.dtd">
<svg version="1.1" id="Layer_1" xmlns="http://www.w3.org/2000/svg" xmlns:xlink="http://www.w3.org/1999/xlink" x="0px" y="0px"
	 width="1080px" height="192.896px" viewBox="0 0 1080 192.896" style="enable-background:new 0 0 1080 192.896;"
	 xml:space="preserve">
<g>
	<g>
		<path style="fill:#F15D3A;" d="M304.569,17.035c30.993,0,54.29,15.98,54.29,48.896c0,24.836-13.288,41.399-33.306,47.943
			l51.786,61.986h-46.015l-45.624-58.907h-2.888v58.907H246.62V17.035H304.569z M282.813,88.076h10.207
			c14.241,0,27.713-4.813,27.713-20.978c0-16.368-13.472-21.182-27.713-21.182h-10.207V88.076z"/>
		<path style="fill:#F15D3A;" d="M411.025,74.215c13.285,0,24.26,4.622,32.346,12.514v-9.435h34.643v98.567h-34.643v-10.587
			c-7.706,7.896-19.061,13.673-32.346,13.673c-28.876,0-48.898-23.484-48.898-52.374C362.127,97.699,382.149,74.215,411.025,74.215z
			 M421.23,149.874c13.286,0,22.913-9.815,22.913-23.301c0-13.665-10.205-23.284-22.913-23.284
			c-12.897,0-22.909,9.619-22.909,23.284C398.321,140.059,407.369,149.874,421.23,149.874z"/>
		<path style="fill:#F15D3A;" d="M533.271,74.215c13.281,0,24.252,4.622,32.342,12.514V10.303h34.653v165.559h-34.653v-10.587
			c-7.704,7.896-19.061,13.673-32.342,13.673c-28.88,0-48.902-23.484-48.902-52.374C484.369,97.699,504.391,74.215,533.271,74.215z
			 M543.47,149.874c13.285,0,22.911-9.815,22.911-23.301c0-13.665-10.205-23.284-22.911-23.284
			c-12.901,0-22.911,9.619-22.911,23.284C520.56,140.059,529.615,149.874,543.47,149.874z"/>
		<path style="fill:#F15D3A;" d="M648.39,36.29c0,11.17-9.057,20.218-20.22,20.218c-11.159,0-20.21-9.048-20.21-20.218
			c0-11.163,9.051-20.21,20.21-20.21C639.333,16.08,648.39,25.127,648.39,36.29z M645.12,77.294v98.567h-33.879V77.294H645.12z"/>
		<path style="fill:#F15D3A;" d="M700.945,74.215c13.283,0,24.254,4.622,32.344,12.514v-9.435h34.649v98.567h-34.649v-10.587
			c-7.704,7.896-19.061,13.673-32.344,13.673c-28.876,0-48.896-23.484-48.896-52.374C652.048,97.699,672.069,74.215,700.945,74.215z
			 M711.151,149.874c13.284,0,22.903-9.815,22.903-23.301c0-13.665-10.203-23.284-22.903-23.284
			c-12.901,0-22.909,9.619-22.909,23.284C688.243,140.059,697.285,149.874,711.151,149.874z"/>
		<path style="fill:#F15D3A;" d="M812.982,77.294v10.203c8.088-7.7,17.912-13.282,28.684-13.282
			c18.101,0,43.318,9.048,43.318,36.574v65.072h-34.073v-55.829c0-9.812-6.738-19.246-17.717-19.246
			c-10.199,0-20.212,9.435-20.212,19.246v55.829h-34.071V77.294H812.982z"/>
		<path style="fill:#F15D3A;" d="M944.471,74.215c21.944,0,33.111,9.24,33.111,9.24l-11.562,23.296c0,0-6.348-4.622-16.551-4.622
			c-12.897,0-23.48,10.979-23.48,24.444c0,13.674,10.583,24.46,23.48,24.46c10.203,0,16.551-4.622,16.551-4.622l11.562,23.677
			c0,0-11.167,8.859-33.111,8.859c-28.494,0-54.676-23.484-54.676-52.374C889.795,97.512,915.781,74.215,944.471,74.215z"/>
		<path style="fill:#F15D3A;" d="M1027.058,74.215c30.027,0,52.941,17.716,52.941,52.358c0,1.355,0,3.475-0.203,4.626h-71.608
			c0,15.212,12.703,20.602,21.367,20.602c10.973,0,15.776-2.119,24.063-10.979l24.638,12.326
			c-11.164,18.671-29.254,25.799-51.197,25.799c-29.845,0-54.293-23.884-54.293-52.562
			C972.765,97.512,997.213,74.215,1027.058,74.215z M1046.689,112.332c-1.537-10.391-8.66-15.976-18.673-15.976
			c-11.744,0-18.287,6.933-18.871,15.976H1046.689z"/>
	</g>
	<path style="fill:#F15D3A;" d="M44.691,44.919c-0.321-0.691-0.14-1.505,0.439-1.988c12.928-10.948,29.642-17.558,47.908-17.558
		c40.998,0,74.236,33.242,74.236,74.238c0,17.369-5.977,33.33-15.97,45.971c-0.16,0.192-0.42,0.246-0.641,0.131
		c-0.211-0.119-0.307-0.368-0.227-0.599c2.109-6.165,3.263-12.775,3.263-19.65c0-33.507-27.16-60.669-60.661-60.669
		c-6.004,0-11.806,0.868-17.276,2.499c-0.219,0.062-0.386,0.23-0.46,0.434c-0.073,0.215-0.037,0.453,0.09,0.638l76.38,107.104
		c24.872-17.45,41.126-46.34,41.126-79.021C192.899,43.184,149.713,0,96.452,0C43.18,0,0,43.184,0,96.448
		c0,30.632,14.276,57.932,36.543,75.598V71.636c0-0.1,0.081-0.541,0.534-0.541c0.251,0,0.474,0.172,0.526,0.418l27.24,116.095
		c9.904,3.432,20.535,5.289,31.609,5.289c5.796,0,11.468-0.507,16.986-1.481L44.691,44.919z"/>
</g>
</svg>
